<svg width="15" height="15" viewBox="0 0 15 15" fill="none" xmlns="http://www.w3.org/2000/svg">
<path fill-rule="evenodd" clip-rule="evenodd" d="M10.2589 9.66719H10.9172L14.4505 13.2172C14.7922 13.5589 14.7922 14.1172 14.4505 14.4589C14.1089 14.8005 13.5505 14.8005 13.2089 14.4589L9.66719 10.9172V10.2589L9.44219 10.0255C8.27552 11.0255 6.68385 11.5422 4.99219 11.2589C2.67552 10.8672 0.825521 8.93385 0.542188 6.60052C0.108855 3.07552 3.07552 0.108855 6.60052 0.542188C8.93385 0.825521 10.8672 2.67552 11.2589 4.99219C11.5422 6.68385 11.0255 8.27552 10.0255 9.44219L10.2589 9.66719ZM2.16719 5.91719C2.16719 7.99219 3.84219 9.66719 5.91719 9.66719C7.99219 9.66719 9.66719 7.99219 9.66719 5.91719C9.66719 3.84219 7.99219 2.16719 5.91719 2.16719C3.84219 2.16719 2.16719 3.84219 2.16719 5.91719Z" fill="#8E9AA5"/>
</svg>
